# xmcd CD database file
#
# Track frame offsets:
#	150
#	35692
#	85650
#	118087
#	158825
#	186917
#
# Disc length: 2864 seconds
#
# Revision: 0
# Processed by: cddbd v1.5.2PL0 Copyright (c) Steve Scherf et al.
# Submitted via: CDex 1.51
#
DISCID=470b2e06
DTITLE=Joe Locke-Phil Markowitz Quartet - Restless Dreams
DYEAR=1986
DGENRE=Jazz
TTITLE0=Rest;less Dreams
TTITLE1=My Foolish Heart
TTITLE2=Khalid the Warrior
TTITLE3=May Moon
TTITLE4=You and I
TTITLE5=Calypso Nouveau
EXTD=YEAR: 1986
EXTT0=
EXTT1=
EXTT2=
EXTT3=
EXTT4=
EXTT5=
PLAYORDER=
